M48
; DRILL file {KiCad (6.0.5)} date Fri Dec 16 11:23:48 2022
; FORMAT={-:-/ absolute / inch / decimal}
; #@! TF.CreationDate,2022-12-16T11:23:48+03:00
; #@! TF.GenerationSoftware,Kicad,Pcbnew,(6.0.5)
; #@! TF.FileFunction,Plated,1,2,PTH
FMAT,2
INCH
; #@! TA.AperFunction,Plated,PTH,ViaDrill
T1C0.0157
; #@! TA.AperFunction,Plated,PTH,ComponentDrill
T2C0.0177
; #@! TA.AperFunction,Plated,PTH,ComponentDrill
T3C0.0197
; #@! TA.AperFunction,Plated,PTH,ComponentDrill
T4C0.0276
; #@! TA.AperFunction,Plated,PTH,ComponentDrill
T5C0.0315
; #@! TA.AperFunction,Plated,PTH,ComponentDrill
T6C0.0394
; #@! TA.AperFunction,Plated,PTH,ComponentDrill
T7C0.0472
; #@! TA.AperFunction,Plated,PTH,ComponentDrill
T8C0.0512
; #@! TA.AperFunction,Plated,PTH,ComponentDrill
T9C0.1260
%
G90
G05
T1
X4.6181Y-2.0866
X4.6181Y-2.1378
X4.6181Y-2.189
X4.6181Y-2.2402
X4.6181Y-2.2913
X4.6181Y-2.3425
X4.6181Y-2.3937
X4.622Y-4.0551
X4.622Y-4.1063
X4.622Y-4.1575
X4.622Y-4.2087
X4.622Y-4.2598
X4.622Y-4.311
X4.622Y-4.3622
X4.6299Y-3.0787
X4.6299Y-3.1299
X4.6299Y-3.1811
X4.6299Y-3.2323
X4.6299Y-3.2835
X4.6299Y-3.3346
X4.6299Y-3.3858
X4.6693Y-2.0866
X4.6693Y-2.1378
X4.6693Y-2.189
X4.6693Y-2.2402
X4.6693Y-2.2913
X4.6693Y-2.3425
X4.6693Y-2.3937
X4.6732Y-4.0551
X4.6732Y-4.1063
X4.6732Y-4.1575
X4.6732Y-4.2087
X4.6732Y-4.2598
X4.6732Y-4.311
X4.6732Y-4.3622
X4.6811Y-3.0787
X4.6811Y-3.1299
X4.6811Y-3.1811
X4.6811Y-3.2323
X4.6811Y-3.2835
X4.6811Y-3.3346
X4.6811Y-3.3858
X4.7205Y-2.0866
X4.7205Y-2.1378
X4.7205Y-2.189
X4.7205Y-2.2402
X4.7205Y-2.2913
X4.7205Y-2.3425
X4.7205Y-2.3937
X4.7244Y-4.0551
X4.7244Y-4.1063
X4.7244Y-4.1575
X4.7244Y-4.2087
X4.7244Y-4.2598
X4.7244Y-4.311
X4.7244Y-4.3622
X4.7323Y-3.0787
X4.7323Y-3.1299
X4.7323Y-3.1811
X4.7323Y-3.2323
X4.7323Y-3.2835
X4.7323Y-3.3346
X4.7323Y-3.3858
X4.7717Y-2.0866
X4.7717Y-2.1378
X4.7717Y-2.189
X4.7717Y-2.2402
X4.7717Y-2.2913
X4.7717Y-2.3425
X4.7717Y-2.3937
X4.7756Y-4.0551
X4.7756Y-4.1063
X4.7756Y-4.1575
X4.7756Y-4.2087
X4.7756Y-4.2598
X4.7756Y-4.311
X4.7756Y-4.3622
X4.7835Y-3.0787
X4.7835Y-3.1299
X4.7835Y-3.1811
X4.7835Y-3.2323
X4.7835Y-3.2835
X4.7835Y-3.3346
X4.7835Y-3.3858
X4.8031Y-2.5866
X4.8071Y-3.5709
X4.8228Y-2.0864
X4.8228Y-2.1375
X4.8228Y-2.1887
X4.8228Y-2.2399
X4.8228Y-2.2911
X4.8228Y-2.3423
X4.8228Y-2.3935
X4.8268Y-4.0549
X4.8268Y-4.1061
X4.8268Y-4.1572
X4.8268Y-4.2084
X4.8268Y-4.2596
X4.8268Y-4.3108
X4.8268Y-4.362
X4.8346Y-3.0785
X4.8346Y-3.1297
X4.8346Y-3.1809
X4.8346Y-3.232
X4.8346Y-3.2832
X4.8346Y-3.3344
X4.8346Y-3.3856
X4.874Y-2.0864
X4.874Y-2.1375
X4.874Y-2.1887
X4.874Y-2.2399
X4.874Y-2.2911
X4.874Y-2.3423
X4.874Y-2.3935
X4.878Y-4.0549
X4.878Y-4.1061
X4.878Y-4.1572
X4.878Y-4.2084
X4.878Y-4.2596
X4.878Y-4.3108
X4.878Y-4.362
X4.8858Y-3.0785
X4.8858Y-3.1297
X4.8858Y-3.1809
X4.8858Y-3.232
X4.8858Y-3.2832
X4.8858Y-3.3344
X4.8858Y-3.3856
X4.9252Y-2.0866
X4.9252Y-2.1378
X4.9252Y-2.189
X4.9252Y-2.2402
X4.9252Y-2.2913
X4.9252Y-2.3425
X4.9252Y-2.3937
X4.9291Y-4.0551
X4.9291Y-4.1063
X4.9291Y-4.1575
X4.9291Y-4.2087
X4.9291Y-4.2598
X4.9291Y-4.311
X4.9291Y-4.3622
X4.937Y-3.0787
X4.937Y-3.1299
X4.937Y-3.1811
X4.937Y-3.2323
X4.937Y-3.2835
X4.937Y-3.3346
X4.937Y-3.3858
X4.9764Y-2.0866
X4.9764Y-2.1378
X4.9764Y-2.189
X4.9764Y-2.2402
X4.9764Y-2.2913
X4.9764Y-2.3425
X4.9764Y-2.3937
X4.9803Y-4.0551
X4.9803Y-4.1063
X4.9803Y-4.1575
X4.9803Y-4.2087
X4.9803Y-4.2598
X4.9803Y-4.311
X4.9803Y-4.3622
X4.9882Y-3.0787
X4.9882Y-3.1299
X4.9882Y-3.1811
X4.9882Y-3.2323
X4.9882Y-3.2835
X4.9882Y-3.3346
X4.9882Y-3.3858
X5.0591Y-2.5354
X5.063Y-3.5197
X5.1535Y-4.7283
X5.1654Y-3.5276
X5.1811Y-2.5546
X5.2205Y-4.7283
X5.3504Y-3.252
X5.3504Y-3.3031
X5.3504Y-3.3543
X5.3504Y-3.4055
X5.3622Y-4.0586
X5.4016Y-3.252
X5.4016Y-3.3031
X5.4016Y-3.3543
X5.4016Y-3.4055
X5.437Y-4.1181
X5.4528Y-3.252
X5.4528Y-3.3031
X5.4528Y-3.3543
X5.4528Y-3.4055
X5.5039Y-3.252
X5.5039Y-3.3031
X5.5039Y-3.3543
X5.5039Y-3.4055
X5.6496Y-3.5827
X5.6614Y-4.0551
X5.7323Y-4.1181
X5.7992Y-3.1378
X5.8031Y-3.4134
X5.9291Y-3.126
X5.9646Y-4.0586
X5.9843Y-3.1693
X6.0276Y-3.1181
X6.0394Y-4.1142
X6.0827Y-3.1339
X6.1063Y-2.878
X6.1142Y-3.3228
X6.1496Y-3.5354
X6.1614Y-3.6102
X6.1654Y-3.8071
X6.1767Y-3.4722
X6.2087Y-4.3937
X6.2106Y-3.4921
X6.2205Y-3.3898
X6.2559Y-4.3066
X6.2598Y-3.1339
X6.2677Y-3.3543
X6.3031Y-2.8858
X6.3189Y-3.7126
X6.3425Y-3.5414
X6.3465Y-3.4055
X6.4252Y-3.5709
X6.4409Y-3.2047
X6.4409Y-3.3701
X6.4449Y-3.063
X6.4606Y-3.5354
X6.4803Y-3.752
X6.5Y-3.1791
X6.5028Y-4.1366
X6.5039Y-4.0158
X6.5039Y-4.0551
X6.5039Y-4.0945
X6.5039Y-4.1772
X6.5039Y-4.2205
X6.5157Y-3.4567
X6.5512Y-3.1969
X6.5571Y-4.3799
X6.5669Y-3.378
X6.5736Y-3.8431
X6.5984Y-4.1063
X6.599Y-3.1792
X6.6378Y-3.6614
X6.6457Y-3.1792
X6.6595Y-3.6246
X6.7008Y-4.3031
X6.7165Y-3.2861
X6.748Y-3.1417
X6.7598Y-3.2264
X6.7638Y-4.2087
X6.7756Y-3.3346
X6.7953Y-3.1417
X6.8228Y-3.9921
X6.8268Y-4.1969
X6.836Y-3.1431
X6.8425Y-3.6969
X6.8465Y-3.937
X6.8819Y-3.1142
X6.9252Y-3.0847
X6.9488Y-3.3583
X6.9724Y-3.7047
X6.9837Y-3.338
X6.9843Y-4.2638
X6.9856Y-3.143
X7.0132Y-3.3701
X7.0197Y-4.0984
X7.0197Y-4.1378
X7.0236Y-3.8425
X7.0315Y-3.1457
X7.0427Y-3.4035
X7.0708Y-3.433
X7.0709Y-3.8228
X7.0827Y-4.2402
X7.0984Y-3.4685
X7.1102Y-3.2795
X7.1261Y-3.5119
X7.1575Y-4.3031
X7.2165Y-4.0197
X7.2283Y-4.2559
X7.248Y-3.185
X7.2598Y-4.122
X7.2677Y-4.0157
X7.3031Y-3.8031
X7.3189Y-3.2756
X7.3228Y-3.1772
X7.3268Y-3.0354
X7.3268Y-4.2382
X7.3507Y-3.205
X7.3937Y-3.9882
X7.3976Y-3.248
X7.4055Y-4.2382
X7.4252Y-3.2795
X7.4291Y-3.6693
X7.4528Y-3.9882
X7.4646Y-4.2382
X7.5039Y-4.2638
X7.5315Y-3.7874
X7.5709Y-4.1024
X7.6063Y-4.3031
X7.6299Y-3.0984
X7.6575Y-4.1654
X7.6772Y-3.0984
X7.8189Y-3.3819
X7.878Y-4.2441
X7.8858Y-3.0787
X7.9213Y-3.9213
X8.0157Y-3.9528
X8.0354Y-3.5197
X8.0512Y-4.3031
X8.0551Y-3.7323
X8.0591Y-3.7913
X8.1063Y-3.9449
X8.1535Y-3.9764
X8.1614Y-4.0827
X8.2008Y-4.2402
X8.2165Y-3.0394
X8.248Y-3.0906
X8.315Y-3.8465
X8.3268Y-3.2712
X8.3543Y-3.6654
X8.3819Y-4.2165
X8.5079Y-4.3066
X8.5236Y-3.8819
X8.5669Y-3.4055
X8.5748Y-3.2835
X8.5769Y-3.7822
X8.6339Y-3.7953
X8.6417Y-3.9567
X8.6457Y-4.378
X8.9055Y-4.4055
X8.9213Y-3.5532
X8.9291Y-2.1969
X8.937Y-2.9961
X9.0551Y-3.1102
X9.063Y-3.9961
X9.1063Y-3.1102
X9.122Y-2.1457
X9.1575Y-2.1142
X9.1811Y-3.378
X9.1969Y-2.0748
X9.2362Y-2.0394
X9.2559Y-2.8465
X9.2717Y-2.9528
X9.2953Y-2.252
X9.2953Y-2.6535
X9.2953Y-3.0433
X9.3189Y-2.0984
X9.3858Y-4.0394
X9.4764Y-4.2165
X9.5669Y-3.7244
X9.5748Y-3.7677
X9.5906Y-3.6929
X9.5945Y-3.5709
X9.5984Y-3.5354
X9.6024Y-3.4528
X9.6024Y-3.7953
X9.6102Y-3.4882
X9.6181Y-3.6063
X9.6181Y-3.6693
X9.626Y-3.4213
X9.6378Y-3.5157
X9.6378Y-3.8031
X9.6535Y-3.6063
X9.6614Y-3.4213
X9.6732Y-3.8031
X9.6772Y-3.5157
X9.689Y-3.689
X9.6929Y-3.6063
X9.6969Y-3.4213
X9.7008Y-3.7205
X9.7126Y-3.7992
X9.7165Y-3.5118
X9.7165Y-3.6654
X9.7323Y-3.6063
X9.7362Y-3.4213
X9.748Y-3.6772
X9.748Y-3.7795
X9.7598Y-3.5118
X9.7638Y-3.7087
X9.7677Y-3.748
X9.7717Y-3.4213
X9.7717Y-3.6063
T3
X4.122Y-2.0472
X4.122Y-4.6063
X4.1497Y-1.9804
X4.1497Y-2.1141
X4.1497Y-4.5395
X4.1497Y-4.6731
X4.2165Y-1.9528
X4.2165Y-2.1417
X4.2165Y-4.5118
X4.2165Y-4.7008
X4.2833Y-1.9804
X4.2833Y-2.1141
X4.2833Y-4.5395
X4.2833Y-4.6731
X4.311Y-2.0472
X4.311Y-4.6063
X9.5709Y-2.0394
X9.5709Y-4.5945
X9.5985Y-1.9726
X9.5985Y-2.1062
X9.5985Y-4.5277
X9.5985Y-4.6613
X9.6654Y-1.9449
X9.6654Y-2.1339
X9.6654Y-4.5
X9.6654Y-4.689
X9.7322Y-1.9726
X9.7322Y-2.1062
X9.7322Y-4.5277
X9.7322Y-4.6613
X9.7598Y-2.0394
X9.7598Y-4.5945
T4
X5.3573Y-4.6391
X5.5073Y-4.6391
X5.6573Y-4.6391
X5.8073Y-4.6391
X5.9573Y-4.6391
X6.1073Y-4.6391
X6.2571Y-4.6391
X6.4071Y-4.6391
X6.5571Y-4.6391
X6.7071Y-4.6391
X6.8571Y-4.6391
X7.0071Y-4.6391
X7.1571Y-4.6391
X7.3071Y-4.6391
X7.4571Y-4.6391
X7.6071Y-4.6391
X7.7571Y-4.6391
X7.9071Y-4.6391
X8.0571Y-4.6391
X8.2071Y-4.6391
X8.3571Y-4.6391
X8.5071Y-4.6391
X8.6571Y-4.6391
X8.8071Y-4.6391
T5
X5.3807Y-2.4669
X5.3807Y-2.9669
X5.4807Y-2.4669
X5.4807Y-2.9669
X5.5807Y-2.4669
X5.5807Y-2.9669
X5.6807Y-2.4669
X5.6807Y-2.9669
X5.7807Y-2.4669
X5.7807Y-2.9669
X5.8807Y-2.4669
X5.8807Y-2.9669
X5.9807Y-2.4669
X5.9807Y-2.9669
X6.0807Y-2.4669
X6.0807Y-2.9669
X6.2705Y-2.4669
X6.2705Y-2.9669
X6.3705Y-2.4669
X6.3705Y-2.9669
X6.4705Y-2.4669
X6.4705Y-2.9669
X6.5705Y-2.4669
X6.5705Y-2.9669
X6.6705Y-2.4669
X6.6705Y-2.9669
X6.7705Y-2.4669
X6.7705Y-2.9669
X6.8705Y-2.4669
X6.8705Y-2.9669
X6.9705Y-2.4669
X6.9705Y-2.9669
X7.1602Y-2.4669
X7.1602Y-2.9669
X7.2602Y-2.4669
X7.2602Y-2.9669
X7.3602Y-2.4669
X7.3602Y-2.9669
X7.4602Y-2.4669
X7.4602Y-2.9669
X7.5602Y-2.4669
X7.5602Y-2.9669
X7.6602Y-2.4669
X7.6602Y-2.9669
X7.7602Y-2.4669
X7.7602Y-2.9669
X7.8602Y-2.4669
X7.8602Y-2.9669
X8.05Y-2.4669
X8.05Y-2.9669
X8.15Y-2.4669
X8.15Y-2.9669
X8.25Y-2.4669
X8.25Y-2.9669
X8.35Y-2.4669
X8.35Y-2.9669
X8.45Y-2.4669
X8.45Y-2.9669
X8.55Y-2.4669
X8.55Y-2.9669
X8.65Y-2.4669
X8.65Y-2.9669
X8.75Y-2.4669
X8.75Y-2.9669
T6
X5.8636Y-2.6589
X5.8636Y-2.7589
X5.9636Y-2.6589
X5.9636Y-2.7589
X6.0636Y-2.6589
X6.0636Y-2.7589
X6.7533Y-2.6589
X6.7533Y-2.7589
X6.8533Y-2.6589
X6.8533Y-2.7589
X6.9533Y-2.6589
X6.9533Y-2.7589
X7.6431Y-2.6589
X7.6431Y-2.7589
X7.6565Y-3.7415
X7.6565Y-3.8415
X7.7431Y-2.6589
X7.7431Y-2.7589
X7.7565Y-3.7415
X7.7565Y-3.8415
X7.8431Y-2.6589
X7.8431Y-2.7589
X7.8565Y-3.7415
X7.8565Y-3.8415
X8.5329Y-2.6589
X8.5329Y-2.7589
X8.6329Y-2.6589
X8.6329Y-2.7589
X8.7329Y-2.6589
X8.7329Y-2.7589
X9.0858Y-4.3133
X9.0858Y-4.4133
X9.1858Y-4.3133
X9.1858Y-4.4133
X9.2858Y-4.3133
X9.2858Y-4.4133
X9.3858Y-2.2038
X9.3858Y-2.3038
X9.3858Y-2.4038
X9.3858Y-2.5038
X9.3858Y-2.6038
X9.3858Y-2.7038
X9.3858Y-2.8038
X9.3858Y-2.9038
X9.3858Y-3.0038
X9.3858Y-3.1038
X9.3858Y-3.2038
X9.3858Y-3.3038
X9.3858Y-3.4038
X9.3858Y-3.5038
X9.3858Y-3.6038
X9.3858Y-3.7038
X9.3858Y-3.8038
X9.3858Y-3.9038
X9.3858Y-4.3133
X9.3858Y-4.4133
T7
X5.4894Y-2.1824
X5.6394Y-2.1824
X5.7894Y-2.1824
X5.9394Y-2.1824
X6.3786Y-2.1824
X6.5286Y-2.1824
X6.6786Y-2.1824
X6.8286Y-2.1824
X7.2678Y-2.1824
X7.4178Y-2.1824
X7.5678Y-2.1824
X7.7178Y-2.1824
X8.1571Y-2.1824
X8.3071Y-2.1824
X8.4571Y-2.1824
X8.6071Y-2.1824
T8
X4.2244Y-2.4567
X4.2244Y-2.6535
X4.2244Y-2.8504
X4.2244Y-3.0472
X4.2244Y-3.2441
X4.2244Y-3.4409
X4.2244Y-4.0079
X4.2244Y-4.2079
T9
X4.2165Y-2.0472
X4.2165Y-4.6063
X9.6654Y-2.0394
X9.6654Y-4.5945
T2
G00X9.7126Y-3.9577
M15
G01X9.7441Y-3.9577
M16
G05
G00X9.7441Y-4.2392
M15
G01X9.7126Y-4.2392
M16
G05
T0
M30
