%TF.GenerationSoftware,KiCad,Pcbnew,(6.0.5)*%
%TF.CreationDate,2022-12-16T11:23:46+03:00*%
%TF.ProjectId,3dprinter,33647072-696e-4746-9572-2e6b69636164,rev?*%
%TF.SameCoordinates,Original*%
%TF.FileFunction,Soldermask,Top*%
%TF.FilePolarity,Negative*%
%FSLAX46Y46*%
G04 Gerber Fmt 4.6, Leading zero omitted, Abs format (unit mm)*
G04 Created by KiCad (PCBNEW (6.0.5)) date 2022-12-16 11:23:46*
%MOMM*%
%LPD*%
G01*
G04 APERTURE LIST*
G04 Aperture macros list*
%AMRoundRect*
0 Rectangle with rounded corners*
0 $1 Rounding radius*
0 $2 $3 $4 $5 $6 $7 $8 $9 X,Y pos of 4 corners*
0 Add a 4 corners polygon primitive as box body*
4,1,4,$2,$3,$4,$5,$6,$7,$8,$9,$2,$3,0*
0 Add four circle primitives for the rounded corners*
1,1,$1+$1,$2,$3*
1,1,$1+$1,$4,$5*
1,1,$1+$1,$6,$7*
1,1,$1+$1,$8,$9*
0 Add four rect primitives between the rounded corners*
20,1,$1+$1,$2,$3,$4,$5,0*
20,1,$1+$1,$4,$5,$6,$7,0*
20,1,$1+$1,$6,$7,$8,$9,0*
20,1,$1+$1,$8,$9,$2,$3,0*%
%AMRotRect*
0 Rectangle, with rotation*
0 The origin of the aperture is its center*
0 $1 length*
0 $2 width*
0 $3 Rotation angle, in degrees counterclockwise*
0 Add horizontal line*
21,1,$1,$2,0,0,$3*%
G04 Aperture macros list end*
%ADD10R,1.100000X4.600000*%
%ADD11R,10.800000X9.400000*%
%ADD12RoundRect,0.250000X-0.450000X0.262500X-0.450000X-0.262500X0.450000X-0.262500X0.450000X0.262500X0*%
%ADD13RoundRect,0.243750X-0.243750X-0.456250X0.243750X-0.456250X0.243750X0.456250X-0.243750X0.456250X0*%
%ADD14RoundRect,0.243750X-0.456250X0.243750X-0.456250X-0.243750X0.456250X-0.243750X0.456250X0.243750X0*%
%ADD15RoundRect,0.250000X-0.250000X-0.475000X0.250000X-0.475000X0.250000X0.475000X-0.250000X0.475000X0*%
%ADD16R,1.600000X1.600000*%
%ADD17O,1.600000X1.600000*%
%ADD18RoundRect,0.250000X0.503814X0.132583X0.132583X0.503814X-0.503814X-0.132583X-0.132583X-0.503814X0*%
%ADD19RoundRect,0.250000X0.450000X-0.262500X0.450000X0.262500X-0.450000X0.262500X-0.450000X-0.262500X0*%
%ADD20RoundRect,0.250000X0.475000X-0.250000X0.475000X0.250000X-0.475000X0.250000X-0.475000X-0.250000X0*%
%ADD21RoundRect,0.250000X-1.500000X-0.550000X1.500000X-0.550000X1.500000X0.550000X-1.500000X0.550000X0*%
%ADD22R,1.700000X1.700000*%
%ADD23O,1.700000X1.700000*%
%ADD24C,0.800000*%
%ADD25C,6.400000*%
%ADD26RoundRect,0.250000X0.650000X1.550000X-0.650000X1.550000X-0.650000X-1.550000X0.650000X-1.550000X0*%
%ADD27O,1.800000X3.600000*%
%ADD28RoundRect,0.250000X0.262500X0.450000X-0.262500X0.450000X-0.262500X-0.450000X0.262500X-0.450000X0*%
%ADD29R,1.400000X0.400000*%
%ADD30R,1.450000X1.150000*%
%ADD31O,1.900000X1.050000*%
%ADD32R,1.900000X1.750000*%
%ADD33RoundRect,0.250000X0.325000X0.650000X-0.325000X0.650000X-0.325000X-0.650000X0.325000X-0.650000X0*%
%ADD34R,1.400000X1.400000*%
%ADD35C,1.400000*%
%ADD36RoundRect,0.250000X-0.262500X-0.450000X0.262500X-0.450000X0.262500X0.450000X-0.262500X0.450000X0*%
%ADD37RotRect,4.500000X2.000000X135.000000*%
%ADD38RoundRect,0.250000X-0.512652X-0.159099X-0.159099X-0.512652X0.512652X0.159099X0.159099X0.512652X0*%
%ADD39RoundRect,0.243750X0.456250X-0.243750X0.456250X0.243750X-0.456250X0.243750X-0.456250X-0.243750X0*%
%ADD40R,1.550000X1.300000*%
%ADD41R,2.600000X2.600000*%
%ADD42C,2.600000*%
%ADD43RoundRect,0.075000X0.521491X-0.415425X-0.415425X0.521491X-0.521491X0.415425X0.415425X-0.521491X0*%
%ADD44RoundRect,0.075000X0.521491X0.415425X0.415425X0.521491X-0.521491X-0.415425X-0.415425X-0.521491X0*%
%ADD45R,1.200000X2.200000*%
%ADD46R,5.800000X6.400000*%
%ADD47RoundRect,0.243750X0.243750X0.456250X-0.243750X0.456250X-0.243750X-0.456250X0.243750X-0.456250X0*%
%ADD48RoundRect,0.250000X1.000000X-1.950000X1.000000X1.950000X-1.000000X1.950000X-1.000000X-1.950000X0*%
%ADD49RoundRect,0.250000X0.550000X-1.050000X0.550000X1.050000X-0.550000X1.050000X-0.550000X-1.050000X0*%
%ADD50R,1.750000X0.450000*%
%ADD51RoundRect,0.250000X0.512652X0.159099X0.159099X0.512652X-0.512652X-0.159099X-0.159099X-0.512652X0*%
G04 APERTURE END LIST*
D10*
%TO.C,Q1*%
X119435000Y-116025000D03*
D11*
X121975000Y-106875000D03*
D10*
X124515000Y-116025000D03*
%TD*%
%TO.C,Q2*%
X124515000Y-91100000D03*
D11*
X121975000Y-81950000D03*
D10*
X119435000Y-91100000D03*
%TD*%
D12*
%TO.C,R12*%
X131600000Y-64887500D03*
X131600000Y-66712500D03*
%TD*%
D13*
%TO.C,D11*%
X226575001Y-96458749D03*
X228450001Y-96458749D03*
%TD*%
D14*
%TO.C,D12*%
X136300000Y-96200000D03*
X136300000Y-98075000D03*
%TD*%
D15*
%TO.C,C8*%
X220170000Y-83130000D03*
X222070000Y-83130000D03*
%TD*%
D13*
%TO.C,D2*%
X199282500Y-103255003D03*
X201157500Y-103255003D03*
%TD*%
D16*
%TO.C,A4*%
X222250000Y-62660000D03*
D17*
X219710000Y-62660000D03*
X217170000Y-62660000D03*
X214630000Y-62660000D03*
X212090000Y-62660000D03*
X209550000Y-62660000D03*
X207010000Y-62660000D03*
X204470000Y-62660000D03*
X204470000Y-75360000D03*
X207010000Y-75360000D03*
X209550000Y-75360000D03*
X212090000Y-75360000D03*
X214630000Y-75360000D03*
X217170000Y-75360000D03*
X219710000Y-75360000D03*
X222250000Y-75360000D03*
%TD*%
D18*
%TO.C,R3*%
X183856334Y-89053713D03*
X182565864Y-87763243D03*
%TD*%
D19*
%TO.C,R14*%
X131675000Y-88017500D03*
X131675000Y-86192500D03*
%TD*%
D20*
%TO.C,C19*%
X123900000Y-74950000D03*
X123900000Y-73050000D03*
%TD*%
D21*
%TO.C,C15*%
X205160000Y-69000000D03*
X210560000Y-69000000D03*
%TD*%
D19*
%TO.C,R13*%
X131675000Y-112922500D03*
X131675000Y-111097500D03*
%TD*%
%TO.C,R1*%
X211500000Y-84912500D03*
X211500000Y-83087500D03*
%TD*%
D22*
%TO.C,J12*%
X171535000Y-70075000D03*
D23*
X171535000Y-67535000D03*
X174075000Y-70075000D03*
X174075000Y-67535000D03*
X176615000Y-70075000D03*
X176615000Y-67535000D03*
%TD*%
D19*
%TO.C,R20*%
X151500000Y-104912500D03*
X151500000Y-103087500D03*
%TD*%
D12*
%TO.C,R23*%
X146060000Y-67887500D03*
X146060000Y-69712500D03*
%TD*%
D24*
%TO.C,H1*%
X105402944Y-53697056D03*
X108797056Y-53697056D03*
X108797056Y-50302944D03*
X107100000Y-49600000D03*
X109500000Y-52000000D03*
X105402944Y-50302944D03*
X107100000Y-54400000D03*
X104700000Y-52000000D03*
D25*
X107100000Y-52000000D03*
%TD*%
D26*
%TO.C,J9*%
X150860000Y-55432500D03*
D27*
X147050000Y-55432500D03*
X143240000Y-55432500D03*
X139430000Y-55432500D03*
%TD*%
D20*
%TO.C,C18*%
X121750000Y-74950000D03*
X121750000Y-73050000D03*
%TD*%
D19*
%TO.C,R17*%
X131675000Y-105642500D03*
X131675000Y-103817500D03*
%TD*%
D24*
%TO.C,H2*%
X243802944Y-50102944D03*
X243100000Y-51800000D03*
D25*
X245500000Y-51800000D03*
D24*
X247900000Y-51800000D03*
X243802944Y-53497056D03*
X245500000Y-54200000D03*
X247197056Y-50102944D03*
X245500000Y-49400000D03*
X247197056Y-53497056D03*
%TD*%
D12*
%TO.C,R29*%
X213700000Y-67787500D03*
X213700000Y-69612500D03*
%TD*%
D20*
%TO.C,C2*%
X140553000Y-98107500D03*
X140553000Y-96207500D03*
%TD*%
D28*
%TO.C,R2*%
X200272500Y-91620001D03*
X198447500Y-91620001D03*
%TD*%
D29*
%TO.C,J2*%
X244450000Y-105400000D03*
X244450000Y-104750000D03*
X244450000Y-104100000D03*
X244450000Y-103450000D03*
X244450000Y-102800000D03*
D30*
X244870000Y-101780000D03*
D31*
X247100000Y-100525000D03*
D32*
X247100000Y-105225000D03*
D31*
X247100000Y-107675000D03*
D32*
X247100000Y-102975000D03*
D30*
X244870000Y-106420000D03*
%TD*%
D22*
%TO.C,J14*%
X194135000Y-70075000D03*
D23*
X194135000Y-67535000D03*
X196675000Y-70075000D03*
X196675000Y-67535000D03*
X199215000Y-70075000D03*
X199215000Y-67535000D03*
%TD*%
D28*
%TO.C,R28*%
X206212500Y-77900000D03*
X204387500Y-77900000D03*
%TD*%
D22*
%TO.C,J1*%
X194475000Y-97575000D03*
D23*
X194475000Y-95035000D03*
X197015000Y-97575000D03*
X197015000Y-95035000D03*
X199555000Y-97575000D03*
X199555000Y-95035000D03*
%TD*%
D16*
%TO.C,A3*%
X199650000Y-62660000D03*
D17*
X197110000Y-62660000D03*
X194570000Y-62660000D03*
X192030000Y-62660000D03*
X189490000Y-62660000D03*
X186950000Y-62660000D03*
X184410000Y-62660000D03*
X181870000Y-62660000D03*
X181870000Y-75360000D03*
X184410000Y-75360000D03*
X186950000Y-75360000D03*
X189490000Y-75360000D03*
X192030000Y-75360000D03*
X194570000Y-75360000D03*
X197110000Y-75360000D03*
X199650000Y-75360000D03*
%TD*%
D22*
%TO.C,J17*%
X238400000Y-109557500D03*
D23*
X238400000Y-112097500D03*
X235860000Y-109557500D03*
X235860000Y-112097500D03*
X233320000Y-109557500D03*
X233320000Y-112097500D03*
X230780000Y-109557500D03*
X230780000Y-112097500D03*
%TD*%
D33*
%TO.C,FB1*%
X227875000Y-107100000D03*
X224925000Y-107100000D03*
%TD*%
D20*
%TO.C,C17*%
X119600000Y-74950000D03*
X119600000Y-73050000D03*
%TD*%
%TO.C,C5*%
X147000000Y-98107500D03*
X147000000Y-96207500D03*
%TD*%
D19*
%TO.C,R9*%
X136200000Y-104912500D03*
X136200000Y-103087500D03*
%TD*%
D34*
%TO.C,J4*%
X158930000Y-117832500D03*
D35*
X162740000Y-117832500D03*
X166550000Y-117832500D03*
X170360000Y-117832500D03*
X174170000Y-117832500D03*
X177980000Y-117832500D03*
%TD*%
D21*
%TO.C,C12*%
X137360000Y-69000000D03*
X142760000Y-69000000D03*
%TD*%
D36*
%TO.C,R34*%
X195787500Y-103300000D03*
X197612500Y-103300000D03*
%TD*%
D37*
%TO.C,Y1*%
X188905204Y-88705204D03*
X182894796Y-82694796D03*
%TD*%
D20*
%TO.C,C3*%
X142702000Y-98107500D03*
X142702000Y-96207500D03*
%TD*%
D19*
%TO.C,R22*%
X136560000Y-79645000D03*
X136560000Y-77820000D03*
%TD*%
D38*
%TO.C,C7*%
X179139349Y-84236728D03*
X180482851Y-85580230D03*
%TD*%
D19*
%TO.C,R16*%
X143800000Y-104912500D03*
X143800000Y-103087500D03*
%TD*%
D39*
%TO.C,D6*%
X131720000Y-109287500D03*
X131720000Y-107412500D03*
%TD*%
D36*
%TO.C,R8*%
X213587500Y-83100001D03*
X215412500Y-83100001D03*
%TD*%
D21*
%TO.C,C13*%
X159960000Y-69000000D03*
X165360000Y-69000000D03*
%TD*%
D13*
%TO.C,D3*%
X199219999Y-105678207D03*
X201094999Y-105678207D03*
%TD*%
D40*
%TO.C,SW1*%
X213845000Y-85380001D03*
X221795000Y-85380001D03*
X213845000Y-89880001D03*
X221795000Y-89880001D03*
%TD*%
D41*
%TO.C,J3*%
X107300000Y-101800000D03*
D42*
X107300000Y-106880000D03*
%TD*%
D20*
%TO.C,C4*%
X144851000Y-98107500D03*
X144851000Y-96207500D03*
%TD*%
D26*
%TO.C,J15*%
X218620000Y-55432500D03*
D27*
X214810000Y-55432500D03*
X211000000Y-55432500D03*
X207190000Y-55432500D03*
%TD*%
D22*
%TO.C,J16*%
X216735000Y-70075000D03*
D23*
X216735000Y-67535000D03*
X219275000Y-70075000D03*
X219275000Y-67535000D03*
X221815000Y-70075000D03*
X221815000Y-67535000D03*
%TD*%
D43*
%TO.C,U1*%
X173886665Y-105386157D03*
X174240218Y-105032604D03*
X174593772Y-104679051D03*
X174947325Y-104325497D03*
X175300879Y-103971944D03*
X175654432Y-103618390D03*
X176007985Y-103264837D03*
X176361539Y-102911284D03*
X176715092Y-102557730D03*
X177068646Y-102204177D03*
X177422199Y-101850623D03*
X177775752Y-101497070D03*
X178129306Y-101143517D03*
X178482859Y-100789963D03*
X178836412Y-100436410D03*
X179189966Y-100082857D03*
X179543519Y-99729303D03*
X179897073Y-99375750D03*
X180250626Y-99022196D03*
X180604179Y-98668643D03*
X180957733Y-98315090D03*
X181311286Y-97961536D03*
X181664840Y-97607983D03*
X182018393Y-97254429D03*
X182371946Y-96900876D03*
D44*
X182371946Y-94549746D03*
X182018393Y-94196193D03*
X181664840Y-93842639D03*
X181311286Y-93489086D03*
X180957733Y-93135532D03*
X180604179Y-92781979D03*
X180250626Y-92428426D03*
X179897073Y-92074872D03*
X179543519Y-91721319D03*
X179189966Y-91367765D03*
X178836412Y-91014212D03*
X178482859Y-90660659D03*
X178129306Y-90307105D03*
X177775752Y-89953552D03*
X177422199Y-89599999D03*
X177068646Y-89246445D03*
X176715092Y-88892892D03*
X176361539Y-88539338D03*
X176007985Y-88185785D03*
X175654432Y-87832232D03*
X175300879Y-87478678D03*
X174947325Y-87125125D03*
X174593772Y-86771571D03*
X174240218Y-86418018D03*
X173886665Y-86064465D03*
D43*
X171535535Y-86064465D03*
X171181982Y-86418018D03*
X170828428Y-86771571D03*
X170474875Y-87125125D03*
X170121321Y-87478678D03*
X169767768Y-87832232D03*
X169414215Y-88185785D03*
X169060661Y-88539338D03*
X168707108Y-88892892D03*
X168353554Y-89246445D03*
X168000001Y-89599999D03*
X167646448Y-89953552D03*
X167292894Y-90307105D03*
X166939341Y-90660659D03*
X166585788Y-91014212D03*
X166232234Y-91367765D03*
X165878681Y-91721319D03*
X165525127Y-92074872D03*
X165171574Y-92428426D03*
X164818021Y-92781979D03*
X164464467Y-93135532D03*
X164110914Y-93489086D03*
X163757360Y-93842639D03*
X163403807Y-94196193D03*
X163050254Y-94549746D03*
D44*
X163050254Y-96900876D03*
X163403807Y-97254429D03*
X163757360Y-97607983D03*
X164110914Y-97961536D03*
X164464467Y-98315090D03*
X164818021Y-98668643D03*
X165171574Y-99022196D03*
X165525127Y-99375750D03*
X165878681Y-99729303D03*
X166232234Y-100082857D03*
X166585788Y-100436410D03*
X166939341Y-100789963D03*
X167292894Y-101143517D03*
X167646448Y-101497070D03*
X168000001Y-101850623D03*
X168353554Y-102204177D03*
X168707108Y-102557730D03*
X169060661Y-102911284D03*
X169414215Y-103264837D03*
X169767768Y-103618390D03*
X170121321Y-103971944D03*
X170474875Y-104325497D03*
X170828428Y-104679051D03*
X171181982Y-105032604D03*
X171535535Y-105386157D03*
%TD*%
D19*
%TO.C,R18*%
X131675000Y-80737500D03*
X131675000Y-78912500D03*
%TD*%
D28*
%TO.C,R24*%
X161212500Y-77900000D03*
X159387500Y-77900000D03*
%TD*%
D12*
%TO.C,R44*%
X216100000Y-109387500D03*
X216100000Y-111212500D03*
%TD*%
D28*
%TO.C,R26*%
X183612500Y-77900000D03*
X181787500Y-77900000D03*
%TD*%
D15*
%TO.C,C22*%
X226542501Y-100671250D03*
X228442501Y-100671250D03*
%TD*%
D20*
%TO.C,C16*%
X117450000Y-74950000D03*
X117450000Y-73050000D03*
%TD*%
D12*
%TO.C,R41*%
X181800000Y-109387500D03*
X181800000Y-111212500D03*
%TD*%
%TO.C,R25*%
X168660000Y-67987500D03*
X168660000Y-69812500D03*
%TD*%
D36*
%TO.C,R37*%
X230200002Y-102799998D03*
X232025002Y-102799998D03*
%TD*%
%TO.C,R33*%
X195675000Y-105723205D03*
X197500000Y-105723205D03*
%TD*%
D15*
%TO.C,C21*%
X226542500Y-102800000D03*
X228442500Y-102800000D03*
%TD*%
D41*
%TO.C,J8*%
X107300000Y-62400000D03*
D42*
X107300000Y-67400000D03*
X107300000Y-72400000D03*
X107300000Y-77400000D03*
X107300000Y-82400000D03*
X107300000Y-87400000D03*
%TD*%
D45*
%TO.C,U3*%
X135520000Y-91000000D03*
D46*
X137800000Y-84700000D03*
D45*
X140080000Y-91000000D03*
%TD*%
D47*
%TO.C,D1*%
X196300000Y-91600000D03*
X194425000Y-91600000D03*
%TD*%
D10*
%TO.C,Q3*%
X119360000Y-66175000D03*
D11*
X121900000Y-57025000D03*
D10*
X124440000Y-66175000D03*
%TD*%
D34*
%TO.C,J5*%
X136075000Y-117832500D03*
D35*
X139885000Y-117832500D03*
X143695000Y-117832500D03*
X147505000Y-117832500D03*
X151315000Y-117832500D03*
X155125000Y-117832500D03*
%TD*%
D12*
%TO.C,R11*%
X131675000Y-89812500D03*
X131675000Y-91637500D03*
%TD*%
D28*
%TO.C,R31*%
X210712502Y-95699998D03*
X208887502Y-95699998D03*
%TD*%
D48*
%TO.C,C23*%
X147400000Y-90200000D03*
X147400000Y-82800000D03*
%TD*%
D22*
%TO.C,J18*%
X238400000Y-99157500D03*
D23*
X238400000Y-96617500D03*
X238400000Y-94077500D03*
X238400000Y-91537500D03*
X238400000Y-88997500D03*
X238400000Y-86457500D03*
X238400000Y-83917500D03*
X238400000Y-81377500D03*
X238400000Y-78837500D03*
X238400000Y-76297500D03*
X238400000Y-73757500D03*
X238400000Y-71217500D03*
X238400000Y-68677500D03*
X238400000Y-66137500D03*
X238400000Y-63597500D03*
X238400000Y-61057500D03*
X238400000Y-58517500D03*
X238400000Y-55977500D03*
%TD*%
D49*
%TO.C,C9*%
X139960000Y-106442500D03*
X139960000Y-102842500D03*
%TD*%
D36*
%TO.C,R5*%
X202775000Y-105723206D03*
X204600000Y-105723206D03*
%TD*%
D12*
%TO.C,R10*%
X131675000Y-114717500D03*
X131675000Y-116542500D03*
%TD*%
D22*
%TO.C,J10*%
X148935000Y-70075000D03*
D23*
X148935000Y-67535000D03*
X151475000Y-70075000D03*
X151475000Y-67535000D03*
X154015000Y-70075000D03*
X154015000Y-67535000D03*
%TD*%
D25*
%TO.C,H4*%
X245500000Y-116700000D03*
D24*
X247197056Y-118397056D03*
X247197056Y-115002944D03*
X245500000Y-114300000D03*
X243802944Y-115002944D03*
X243802944Y-118397056D03*
X245500000Y-119100000D03*
X247900000Y-116700000D03*
X243100000Y-116700000D03*
%TD*%
D28*
%TO.C,R32*%
X210712500Y-93600000D03*
X208887500Y-93600000D03*
%TD*%
D12*
%TO.C,R27*%
X191260000Y-67987500D03*
X191260000Y-69812500D03*
%TD*%
D36*
%TO.C,R4*%
X202787500Y-103300000D03*
X204612500Y-103300000D03*
%TD*%
D50*
%TO.C,U2*%
X214312499Y-93675000D03*
X214312499Y-94325000D03*
X214312499Y-94975000D03*
X214312499Y-95625000D03*
X214312499Y-96275000D03*
X214312499Y-96925000D03*
X214312499Y-97575000D03*
X214312499Y-98225000D03*
X214312499Y-98875000D03*
X214312499Y-99525000D03*
X214312499Y-100175000D03*
X214312499Y-100825000D03*
X214312499Y-101475000D03*
X214312499Y-102125000D03*
X221512499Y-102125000D03*
X221512499Y-101475000D03*
X221512499Y-100825000D03*
X221512499Y-100175000D03*
X221512499Y-99525000D03*
X221512499Y-98875000D03*
X221512499Y-98225000D03*
X221512499Y-97575000D03*
X221512499Y-96925000D03*
X221512499Y-96275000D03*
X221512499Y-95625000D03*
X221512499Y-94975000D03*
X221512499Y-94325000D03*
X221512499Y-93675000D03*
%TD*%
D36*
%TO.C,R36*%
X230200001Y-96413750D03*
X232025001Y-96413750D03*
%TD*%
D34*
%TO.C,J7*%
X204650000Y-117832500D03*
D35*
X208460000Y-117832500D03*
X212270000Y-117832500D03*
X216080000Y-117832500D03*
X219890000Y-117832500D03*
X223700000Y-117832500D03*
%TD*%
D13*
%TO.C,D10*%
X226575000Y-94300000D03*
X228450000Y-94300000D03*
%TD*%
D20*
%TO.C,C20*%
X126050000Y-74950000D03*
X126050000Y-73050000D03*
%TD*%
D39*
%TO.C,D7*%
X131720000Y-84382500D03*
X131720000Y-82507500D03*
%TD*%
D26*
%TO.C,J11*%
X173446666Y-55432500D03*
D27*
X169636666Y-55432500D03*
X165826666Y-55432500D03*
X162016666Y-55432500D03*
%TD*%
D34*
%TO.C,J6*%
X181790000Y-117832500D03*
D35*
X185600000Y-117832500D03*
X189410000Y-117832500D03*
X193220000Y-117832500D03*
X197030000Y-117832500D03*
X200840000Y-117832500D03*
%TD*%
D21*
%TO.C,C14*%
X182560000Y-69000000D03*
X187960000Y-69000000D03*
%TD*%
D19*
%TO.C,R19*%
X131600000Y-55812500D03*
X131600000Y-53987500D03*
%TD*%
D20*
%TO.C,C1*%
X166500000Y-111230000D03*
X166500000Y-109330000D03*
%TD*%
D36*
%TO.C,R35*%
X230200000Y-94255001D03*
X232025000Y-94255001D03*
%TD*%
D24*
%TO.C,H3*%
X105402944Y-115302944D03*
X107100000Y-114600000D03*
X107100000Y-119400000D03*
X108797056Y-115302944D03*
X108797056Y-118697056D03*
X104700000Y-117000000D03*
D25*
X107100000Y-117000000D03*
D24*
X105402944Y-118697056D03*
X109500000Y-117000000D03*
%TD*%
D19*
%TO.C,R15*%
X131600000Y-63092500D03*
X131600000Y-61267500D03*
%TD*%
D12*
%TO.C,R43*%
X204500000Y-109387500D03*
X204500000Y-111212500D03*
%TD*%
%TO.C,R42*%
X193200000Y-109387500D03*
X193200000Y-111212500D03*
%TD*%
D16*
%TO.C,A1*%
X154450000Y-62660000D03*
D17*
X151910000Y-62660000D03*
X149370000Y-62660000D03*
X146830000Y-62660000D03*
X144290000Y-62660000D03*
X141750000Y-62660000D03*
X139210000Y-62660000D03*
X136670000Y-62660000D03*
X136670000Y-75360000D03*
X139210000Y-75360000D03*
X141750000Y-75360000D03*
X144290000Y-75360000D03*
X146830000Y-75360000D03*
X149370000Y-75360000D03*
X151910000Y-75360000D03*
X154450000Y-75360000D03*
%TD*%
D12*
%TO.C,R40*%
X170300000Y-109387500D03*
X170300000Y-111212500D03*
%TD*%
%TO.C,R39*%
X158900000Y-109387500D03*
X158900000Y-111212500D03*
%TD*%
D51*
%TO.C,C6*%
X187382849Y-92480230D03*
X186039347Y-91136728D03*
%TD*%
D19*
%TO.C,R38*%
X138434000Y-98050000D03*
X138434000Y-96225000D03*
%TD*%
D36*
%TO.C,R30*%
X226560002Y-98572498D03*
X228385002Y-98572498D03*
%TD*%
D49*
%TO.C,C11*%
X155160000Y-106442500D03*
X155160000Y-102842500D03*
%TD*%
D39*
%TO.C,D8*%
X131645000Y-59457500D03*
X131645000Y-57582500D03*
%TD*%
D16*
%TO.C,A2*%
X177050000Y-62660000D03*
D17*
X174510000Y-62660000D03*
X171970000Y-62660000D03*
X169430000Y-62660000D03*
X166890000Y-62660000D03*
X164350000Y-62660000D03*
X161810000Y-62660000D03*
X159270000Y-62660000D03*
X159270000Y-75360000D03*
X161810000Y-75360000D03*
X164350000Y-75360000D03*
X166890000Y-75360000D03*
X169430000Y-75360000D03*
X171970000Y-75360000D03*
X174510000Y-75360000D03*
X177050000Y-75360000D03*
%TD*%
D26*
%TO.C,J13*%
X196033332Y-55432500D03*
D27*
X192223332Y-55432500D03*
X188413332Y-55432500D03*
X184603332Y-55432500D03*
%TD*%
D49*
%TO.C,C10*%
X147560000Y-106442500D03*
X147560000Y-102842500D03*
%TD*%
M02*
